<svg width="40" height="40" viewBox="0 0 40 40" fill="none" xmlns="http://www.w3.org/2000/svg">
<path d="M20 0.5C30.7696 0.5 39.5 9.23045 39.5 20C39.5 30.7696 30.7696 39.5 20 39.5C9.23045 39.5 0.5 30.7696 0.5 20C0.5 9.23045 9.23045 0.5 20 0.5Z" stroke="#D5D7DA"/>
<path d="M24.8936 21.3023L25.4635 17.6812H21.9528V15.3275C21.9528 14.3373 22.4429 13.3698 24.0102 13.3698H25.6288V10.2863C24.6862 10.136 23.7338 10.0546 22.7792 10.043C19.8897 10.043 18.0032 11.78 18.0032 14.9201V17.6812H14.8003V21.3023H18.0032V30.0607H21.9528V21.3023H24.8936Z" fill="#0A0D12"/>
</svg>
