<svg width="40" height="40" viewBox="0 0 40 40" fill="none" xmlns="http://www.w3.org/2000/svg">
<path d="M20 0.5C30.7696 0.5 39.5 9.23045 39.5 20C39.5 30.7696 30.7696 39.5 20 39.5C9.23045 39.5 0.5 30.7696 0.5 20C0.5 9.23045 9.23045 0.5 20 0.5Z" stroke="#D5D7DA"/>
<path d="M15.3989 28.1052V17.3H11.8106V28.1052H15.3993H15.3989ZM13.6055 15.825C14.8566 15.825 15.6354 14.9953 15.6354 13.9584C15.612 12.8979 14.8566 12.0913 13.6293 12.0913C12.4012 12.0913 11.5991 12.8979 11.5991 13.9583C11.5991 14.9952 12.3777 15.8249 13.582 15.8249H13.6052L13.6055 15.825ZM17.3851 28.1052H20.9731V22.0717C20.9731 21.7492 20.9965 21.4259 21.0913 21.1955C21.3505 20.55 21.9409 19.8819 22.9324 19.8819C24.2305 19.8819 24.7501 20.8726 24.7501 22.3253V28.1052H28.338V21.9098C28.338 18.5911 26.568 17.0467 24.2073 17.0467C22.2718 17.0467 21.4217 18.1294 20.9495 18.8669H20.9733V17.3004H17.3853C17.4321 18.314 17.385 28.1055 17.385 28.1055L17.3851 28.1052Z" fill="#0A0D12"/>
</svg>
